# Made in Blockbench 4.10.4
mtllib fueltank.mtl

o sphere
v -0.48125 -0.46875 0.02847718241315028
v -0.4977252435582567 -1.2629441738241591 0.024306795603287565
v -0.4977252435582567 -1.2629441738241591 -0.010556795603287582
v -0.48125 -0.46875 -0.014727182413150297
v -0.70625 -0.46875 0.02847718241315029
v -0.6897747564417434 -1.2629441738241591 0.024306795603287582
v -0.6335247564417433 -1.2629441738241591 0.058681795603287554
v -0.6403490257669733 -0.46875 0.06874999999999998
v -0.5471509742330268 -0.46875 0.06874999999999998
v -0.5539752435582567 -1.2629441738241591 0.05868179560328757
vt 0.3133612349329096 0.9996345166100497
vt 0.3133612349329096 0.2052610780543458
vt 0.3482232548748164 0.205078125
vt 0.3565606400670904 0.9994078096341373
vt 0.00019456932531530802 0.9992475443047044
vt 0.018325487642960298 0.205078125
vt 0.08424844667367973 0.20559687121356496
vt 0.07742342832632024 0.9998552563791282
vt 0.17062344667367976 0.9998573915446916
vt 0.16379842832632024 0.2055990063791282
vt 0.22972138735703967 0.20508026016556324
vt 0.2478523056746847 0.9992496794702677
vt 0.07742342832632024 0.9998552563791282
vt 0.08424842832632023 0.2055990063791282
vt 0.16379842832632024 0.2055990063791282
vt 0.17062342832632024 0.9998552563791282
vn 0.999784900126292 -0.020740141741577373 0
vn -0.5213890035153551 -0.015296145709832334 0.8531820057524002
vn 0.5213890035153558 -0.0152961457098323 0.8531820057523998
vn -1.647336758232443e-16 -0.012676239364404722 0.9999196532499881
usemtl m_4b8ecb33-4e8f-cb2f-881d-31e26e9384ab
f 1/1/1 2/2/1 3/3/1 4/4/1
f 5/5/2 6/6/2 7/7/2 8/8/2
f 9/9/3 10/10/3 2/11/3 1/12/3
f 8/13/4 7/14/4 10/15/4 9/16/4